<svg width="42" height="42" viewBox="0 0 42 42" fill="none" xmlns="http://www.w3.org/2000/svg">
<path fill-rule="evenodd" clip-rule="evenodd" d="M0 21C0 32.598 9.40202 42 21 42C32.598 42 42 32.598 42 21C42 9.40202 32.598 0 21 0C9.40202 0 0 9.40202 0 21ZM40 21C40 31.4934 31.4934 40 21 40C10.5066 40 2 31.4934 2 21C2 10.5066 10.5066 2 21 2C31.4934 2 40 10.5066 40 21ZM16.9776 31.6915C15.7197 32.3814 14.1632 31.8767 13.5131 30.5868C13.2592 30.0831 13.172 29.5086 13.2638 28.9501L14.0414 24.2208L10.7545 20.8787C9.76638 19.874 9.74637 18.2412 10.7089 17.2112C11.0993 16.7934 11.6149 16.5193 12.1756 16.4344L16.6839 15.751L18.7077 11.4734C19.3254 10.1679 20.8679 9.62222 22.1428 10.2785C22.6448 10.537 23.048 10.9576 23.2921 11.4734L25.3159 15.751L29.8242 16.4344C31.2207 16.646 32.1714 17.975 31.9741 19.3913C31.8957 19.9543 31.6405 20.4769 31.2453 20.8787L27.9584 24.2208L28.736 28.9501C28.9678 30.3602 28.0509 31.7127 26.6612 31.9613C26.1003 32.0617 25.5233 31.9663 25.0222 31.6915L20.9999 29.4857L16.9776 31.6915ZM21.4807 27.4683C21.1812 27.3041 20.8186 27.3041 20.5191 27.4683L16.0159 29.9379C15.7604 30.078 15.4448 29.9757 15.2991 29.6867C15.2362 29.5618 15.2141 29.4162 15.2373 29.2746L16.0974 24.044C16.1491 23.729 16.0474 23.4082 15.8236 23.1806L12.1805 19.4763C11.9441 19.236 11.9391 18.824 12.1702 18.5767C12.255 18.4859 12.3622 18.4289 12.4753 18.4118L17.51 17.6486C17.839 17.5988 18.1217 17.3885 18.264 17.0876L20.5156 12.3287C20.6547 12.0347 20.9688 11.9236 21.2273 12.0567C21.3358 12.1126 21.4269 12.2075 21.4842 12.3287L23.7358 17.0876C23.8781 17.3885 24.1608 17.5988 24.4898 17.6486L29.5245 18.4118C29.8201 18.4566 30.0419 18.7665 29.9933 19.1154C29.9738 19.2553 29.9117 19.3824 29.8193 19.4763L26.1762 23.1806C25.9524 23.4082 25.8507 23.729 25.9024 24.044L26.7625 29.2746C26.8197 29.6225 26.6046 29.9397 26.309 29.9926C26.1988 30.0123 26.0854 29.9936 25.9839 29.9379L21.4807 27.4683Z" fill="#2E2E2E"/>
</svg>
