<svg width="28" height="28" viewBox="0 0 28 28" fill="none" xmlns="http://www.w3.org/2000/svg">
<g id="iconspace_Bulb_25px">
<path id="Path" fill-rule="evenodd" clip-rule="evenodd" d="M12.3244 12.8828V18.4682C12.3244 18.7767 12.5744 19.0268 12.8829 19.0268C13.1914 19.0268 13.4415 18.7767 13.4415 18.4682V12.8828C13.4415 12.5743 13.1914 12.3242 12.8829 12.3242C12.5744 12.3242 12.3244 12.5743 12.3244 12.8828Z" fill="#00B8D9"/>
<path id="Path_2" fill-rule="evenodd" clip-rule="evenodd" d="M14.5586 12.8828V18.4682C14.5586 18.7767 14.8086 19.0268 15.1171 19.0268C15.4256 19.0268 15.6757 18.7767 15.6757 18.4682V12.8828C15.6757 12.5743 15.4256 12.3242 15.1171 12.3242C14.8086 12.3242 14.5586 12.5743 14.5586 12.8828Z" fill="#00B8D9"/>
<path id="Path_3" fill-rule="evenodd" clip-rule="evenodd" d="M16.7927 19.0269H11.2073V21.2611H16.7927V19.0269ZM16.7927 17.9098V17.7158C16.7927 17.5002 16.9168 17.3038 17.1116 17.2113C19.6252 16.0172 21.2611 13.4808 21.2611 10.6487C21.2611 6.6385 18.0102 3.3876 14 3.3876C9.98982 3.3876 6.73892 6.6385 6.73892 10.6487C6.73892 13.4808 8.37484 16.0172 10.8884 17.2113C11.0832 17.3038 11.2073 17.5002 11.2073 17.7158V17.9098H16.7927ZM16.7927 22.3781H11.2073V22.9367C11.2073 23.8621 11.9575 24.6123 12.8829 24.6123H15.1171C16.0425 24.6123 16.7927 23.8621 16.7927 22.9367V22.3781ZM5.62183 10.6487C5.62183 6.02155 9.37287 2.27051 14 2.27051C18.6271 2.27051 22.3782 6.02155 22.3782 10.6487C22.3782 13.7948 20.6281 16.625 17.9098 18.0605V22.9367C17.9098 24.4791 16.6595 25.7294 15.1171 25.7294H12.8829C11.3405 25.7294 10.0902 24.4791 10.0902 22.9367V18.0605C7.37189 16.625 5.62183 13.7948 5.62183 10.6487Z" fill="#1565D8"/>
</g>
</svg>
