<svg width="28" height="28" viewBox="0 0 28 28" fill="none" xmlns="http://www.w3.org/2000/svg">
<g id="iconspace_Opened Book 2_25px">
<path id="Path" fill-rule="evenodd" clip-rule="evenodd" d="M13.4415 6.56266C10.1227 5.32775 6.77951 5.32829 3.38766 6.56556V23.2618C6.7479 22.1515 10.1051 22.1507 13.4415 23.2599V6.56266V6.56266ZM14.5586 6.56315V23.2592C17.917 22.1386 21.2744 22.1379 24.6124 23.2575V6.56128C21.2804 5.30839 17.9375 5.30873 14.5586 6.56315H14.5586ZM25.3795 5.6612C25.5909 5.74631 25.7295 5.9514 25.7295 6.17936V24.0528C25.7295 24.4452 25.3355 24.7153 24.9695 24.5738C21.389 23.1892 17.8085 23.1892 14.2002 24.5743C14.0714 24.6237 13.9289 24.6237 13.8001 24.5744C10.2209 23.2026 6.63909 23.2026 3.02751 24.5749C2.662 24.7138 2.27057 24.4438 2.27057 24.0528V6.17936C2.27057 5.94918 2.41177 5.74257 2.62623 5.65896C6.45211 4.16741 10.2528 4.14052 14.0004 5.57974C17.8142 4.1201 21.6169 4.14693 25.3795 5.6612Z" fill="#1565D8"/>
<path id="Combined Shape" fill-rule="evenodd" clip-rule="evenodd" d="M5.62183 9.5312C5.62183 9.83968 5.8719 10.0897 6.18037 10.0897H10.6487C10.9572 10.0897 11.2073 9.83968 11.2073 9.5312C11.2073 9.22273 10.9572 8.97266 10.6487 8.97266H6.18037C5.8719 8.97266 5.62183 9.22273 5.62183 9.5312ZM16.7927 9.5312C16.7927 9.83968 17.0428 10.0897 17.3513 10.0897H21.8196C22.1281 10.0897 22.3782 9.83968 22.3782 9.5312C22.3782 9.22273 22.1281 8.97266 21.8196 8.97266H17.3513C17.0428 8.97266 16.7927 9.22273 16.7927 9.5312ZM16.7927 12.8825C16.7927 13.191 17.0428 13.441 17.3513 13.441H21.8196C22.1281 13.441 22.3782 13.191 22.3782 12.8825C22.3782 12.574 22.1281 12.3239 21.8196 12.3239H17.3513C17.0428 12.3239 16.7927 12.574 16.7927 12.8825ZM17.3513 20.1436C17.0428 20.1436 16.7927 19.8935 16.7927 19.585C16.7927 19.2765 17.0428 19.0265 17.3513 19.0265H21.8196C22.1281 19.0265 22.3782 19.2765 22.3782 19.585C22.3782 19.8935 22.1281 20.1436 21.8196 20.1436H17.3513ZM6.18037 13.441C5.8719 13.441 5.62183 13.191 5.62183 12.8825C5.62183 12.574 5.8719 12.3239 6.18037 12.3239H10.6487C10.9572 12.3239 11.2073 12.574 11.2073 12.8825C11.2073 13.191 10.9572 13.441 10.6487 13.441H6.18037ZM5.62183 16.2337C5.62183 16.5422 5.8719 16.7923 6.18037 16.7923H10.6487C10.9572 16.7923 11.2073 16.5422 11.2073 16.2337C11.2073 15.9253 10.9572 15.6752 10.6487 15.6752H6.18037C5.8719 15.6752 5.62183 15.9253 5.62183 16.2337ZM6.18037 20.1436C5.8719 20.1436 5.62183 19.8935 5.62183 19.585C5.62183 19.2765 5.8719 19.0265 6.18037 19.0265H10.6487C10.9572 19.0265 11.2073 19.2765 11.2073 19.585C11.2073 19.8935 10.9572 20.1436 10.6487 20.1436H6.18037ZM21.8196 16.7923H17.3513C17.0428 16.7923 16.7927 16.5422 16.7927 16.2337C16.7927 15.9253 17.0428 15.6752 17.3513 15.6752H21.8196C22.1281 15.6752 22.3782 15.9253 22.3782 16.2337C22.3782 16.5422 22.1281 16.7923 21.8196 16.7923Z" fill="#00B8D9"/>
</g>
</svg>
