<svg width="28" height="28" viewBox="0 0 28 28" fill="none" xmlns="http://www.w3.org/2000/svg">
<g id="iconspace_Board_25px">
<path id="Path" fill-rule="evenodd" clip-rule="evenodd" d="M18.971 4.50469H19.5855C21.7448 4.50469 23.4953 6.25517 23.4953 8.41451V21.8196C23.4953 23.9789 21.7448 25.7294 19.5855 25.7294H8.41455C6.25522 25.7294 4.50473 23.9789 4.50473 21.8196V8.41451C4.50473 6.25517 6.25522 4.50469 8.41455 4.50469H9.02896C9.28772 3.22995 10.4147 2.27051 11.7658 2.27051H16.2342C17.5853 2.27051 18.7123 3.22995 18.971 4.50469ZM9.02896 5.62178H8.41455C6.87217 5.62178 5.62182 6.87213 5.62182 8.41451V21.8196C5.62182 23.362 6.87217 24.6123 8.41455 24.6123H19.5855C21.1278 24.6123 22.3782 23.362 22.3782 21.8196V8.41451C22.3782 6.87213 21.1278 5.62178 19.5855 5.62178H18.971C18.7123 6.89652 17.5853 7.85596 16.2342 7.85596H11.7658C10.4147 7.85596 9.28772 6.89652 9.02896 5.62178ZM11.7658 3.3876C10.8404 3.3876 10.0902 4.13781 10.0902 5.06324C10.0902 5.98866 10.8404 6.73887 11.7658 6.73887H16.2342C17.1596 6.73887 17.9098 5.98866 17.9098 5.06324C17.9098 4.13781 17.1596 3.3876 16.2342 3.3876H11.7658Z" fill="#1565D8"/>
<path id="Path_2" fill-rule="evenodd" clip-rule="evenodd" d="M9.53166 16.7925C9.22318 16.7925 8.97311 16.5424 8.97311 16.2339C8.97311 15.9255 9.22318 15.6754 9.53166 15.6754H18.4684C18.7769 15.6754 19.0269 15.9255 19.0269 16.2339C19.0269 16.5424 18.7769 16.7925 18.4684 16.7925H9.53166ZM9.53166 12.3241C9.22318 12.3241 8.97311 12.0741 8.97311 11.7656C8.97311 11.4571 9.22318 11.207 9.53166 11.207H18.4684C18.7769 11.207 19.0269 11.4571 19.0269 11.7656C19.0269 12.0741 18.7769 12.3241 18.4684 12.3241H9.53166ZM9.53166 21.2608C9.22318 21.2608 8.97311 21.0108 8.97311 20.7023C8.97311 20.3938 9.22318 20.1438 9.53166 20.1438H18.4684C18.7769 20.1438 19.0269 20.3938 19.0269 20.7023C19.0269 21.0108 18.7769 21.2608 18.4684 21.2608H9.53166Z" fill="#00B8D9"/>
</g>
</svg>
