<svg width="28" height="28" viewBox="0 0 28 28" fill="none" xmlns="http://www.w3.org/2000/svg">
<g id="iconspace_Receipt_25px">
<path id="path" fill-rule="evenodd" clip-rule="evenodd" d="M8.17813 24.6128C8.71776 24.0313 8.97312 23.4807 8.97312 22.9566C8.97312 22.3811 8.6657 21.7609 8.01459 21.0929C7.66967 20.739 7.92041 20.1445 8.41457 20.1445H21.2611V3.63674L17.5762 5.0244C17.4501 5.0719 17.311 5.07218 17.1847 5.0252L12.8862 3.42669L8.69659 5.03677C8.56978 5.08551 8.42956 5.08635 8.30217 5.03916L4.50476 3.63216V21.8201C4.50476 23.3625 5.7551 24.6128 7.29748 24.6128H8.17813ZM22.9368 25.7299H7.29748C5.13815 25.7299 3.38766 23.9794 3.38766 21.8201V2.82956C3.38766 2.44052 3.77546 2.17064 4.14027 2.30581L8.49262 3.91842L12.6826 2.30819C12.8096 2.25938 12.9501 2.25861 13.0776 2.30604L17.3782 3.90531L21.6228 2.30685C21.9881 2.1693 22.3782 2.43925 22.3782 2.82956V20.1445H22.9368C24.4791 20.1445 25.7295 21.3948 25.7295 22.9372C25.7295 24.4796 24.4791 25.7299 22.9368 25.7299ZM10.0902 22.9566C10.0902 23.5214 9.91838 24.074 9.58393 24.6128H22.9368C23.8622 24.6128 24.6124 23.8626 24.6124 22.9372C24.6124 22.0118 23.8622 21.2616 22.9368 21.2616H9.56919C9.91343 21.8184 10.0902 22.3837 10.0902 22.9566Z" fill="#1565D8"/>
<path id="path_2" fill-rule="evenodd" clip-rule="evenodd" d="M13.4415 10.6494C13.4415 10.3409 13.1914 10.0908 12.8829 10.0908H8.41456C8.10609 10.0908 7.85602 10.3409 7.85602 10.6494C7.85602 10.9578 8.10609 11.2079 8.41456 11.2079H12.8829C13.1914 11.2079 13.4415 10.9578 13.4415 10.6494ZM17.9098 15.1177C17.9098 14.8093 17.6598 14.5592 17.3513 14.5592H8.41456C8.10609 14.5592 7.85602 14.8093 7.85602 15.1177C7.85602 15.4262 8.10609 15.6763 8.41456 15.6763H17.3513C17.6598 15.6763 17.9098 15.4262 17.9098 15.1177Z" fill="#00B8D9"/>
</g>
</svg>
