<svg width="48" height="48" viewBox="0 0 48 48" fill="none" xmlns="http://www.w3.org/2000/svg">
<g id="iconspace_Workflow_25px">
<path id="path" fill-rule="evenodd" clip-rule="evenodd" d="M25.5224 9.59984H17.28V6.71984C17.28 5.12926 15.9906 3.83984 14.4 3.83984H6.72C5.12942 3.83984 3.84 5.12926 3.84 6.71984V14.3998C3.84 15.9904 5.12942 17.2798 6.72 17.2798H14.4C15.9906 17.2798 17.28 15.9904 17.28 14.3998V11.5198H25.5224L23.3212 13.721C22.9463 14.0959 22.9463 14.7038 23.3212 15.0787C23.6961 15.4536 24.3039 15.4536 24.6788 15.0787L28.5188 11.2387C28.8937 10.8638 28.8937 10.2559 28.5188 9.88102L24.6788 6.04102C24.3039 5.66612 23.6961 5.66612 23.3212 6.04102C22.9463 6.41592 22.9463 7.02376 23.3212 7.39867L25.5224 9.59984ZM15.36 6.71984V14.3998C15.36 14.93 14.9302 15.3598 14.4 15.3598H6.72C6.1898 15.3598 5.76 14.93 5.76 14.3998V6.71984C5.76 6.18965 6.1898 5.75984 6.72 5.75984H14.4C14.9302 5.75984 15.36 6.18965 15.36 6.71984ZM38.4 17.2798V25.5222L40.6012 23.321C40.9761 22.9461 41.5839 22.9461 41.9588 23.321C42.3337 23.6959 42.3337 24.3038 41.9588 24.6787L38.1188 28.5187C37.9314 28.7061 37.6857 28.7998 37.44 28.7998C37.1943 28.7998 36.9486 28.7061 36.7612 28.5187L32.9212 24.6787C32.5463 24.3038 32.5463 23.6959 32.9212 23.321C33.2961 22.9461 33.9039 22.9461 34.2788 23.321L36.48 25.5222V17.2798H33.6C32.0094 17.2798 30.72 15.9904 30.72 14.3998V6.71984C30.72 5.12926 32.0094 3.83984 33.6 3.83984H41.28C42.8706 3.83984 44.16 5.12926 44.16 6.71984V14.3998C44.16 15.9904 42.8706 17.2798 41.28 17.2798H38.4ZM41.28 15.3598H33.6C33.0698 15.3598 32.64 14.93 32.64 14.3998V6.71984C32.64 6.18965 33.0698 5.75984 33.6 5.75984H41.28C41.8102 5.75984 42.24 6.18965 42.24 6.71984V14.3998C42.24 14.93 41.8102 15.3598 41.28 15.3598ZM30.72 38.3998H22.4776L24.6788 40.601C25.0537 40.9759 25.0537 41.5838 24.6788 41.9587C24.3039 42.3336 23.6961 42.3336 23.3212 41.9587L19.4812 38.1187C19.1063 37.7438 19.1063 37.1359 19.4812 36.761L23.3212 32.921C23.6961 32.5461 24.3039 32.5461 24.6788 32.921C25.0537 33.2959 25.0537 33.9038 24.6788 34.2787L22.4776 36.4798H30.72V33.5998C30.72 32.0093 32.0094 30.7198 33.6 30.7198H41.28C42.8706 30.7198 44.16 32.0093 44.16 33.5998V41.2798C44.16 42.8704 42.8706 44.1598 41.28 44.1598H33.6C32.0094 44.1598 30.72 42.8704 30.72 41.2798V38.3998ZM32.64 41.2798V33.5998C32.64 33.0696 33.0698 32.6398 33.6 32.6398H41.28C41.8102 32.6398 42.24 33.0696 42.24 33.5998V41.2798C42.24 41.81 41.8102 42.2398 41.28 42.2398H33.6C33.0698 42.2398 32.64 41.81 32.64 41.2798ZM11.52 30.7198H14.4C15.9906 30.7198 17.28 32.0093 17.28 33.5998V41.2798C17.28 42.8704 15.9906 44.1598 14.4 44.1598H6.72C5.12942 44.1598 3.84 42.8704 3.84 41.2798V33.5998C3.84 32.0093 5.12942 30.7198 6.72 30.7198H9.6V22.4775L7.39882 24.6787C7.02392 25.0536 6.41608 25.0536 6.04117 24.6787C5.66627 24.3038 5.66627 23.6959 6.04117 23.321L9.88117 19.481C10.2561 19.1061 10.8639 19.1061 11.2388 19.481L15.0788 23.321C15.4537 23.6959 15.4537 24.3038 15.0788 24.6787C14.7039 25.0536 14.0961 25.0536 13.7212 24.6787L11.52 22.4775V30.7198ZM5.76 33.5998C5.76 33.0696 6.1898 32.6398 6.72 32.6398H14.4C14.9302 32.6398 15.36 33.0696 15.36 33.5998V41.2798C15.36 41.81 14.9302 42.2398 14.4 42.2398H6.72C6.1898 42.2398 5.76 41.81 5.76 41.2798V33.5998Z" fill="#2E2E2E"/>
</g>
</svg>
