<svg width="42" height="42" viewBox="0 0 42 42" fill="none" xmlns="http://www.w3.org/2000/svg">
<path fill-rule="evenodd" clip-rule="evenodd" d="M21 42C9.40202 42 0 32.598 0 21C0 9.40202 9.40202 0 21 0C32.598 0 42 9.40202 42 21C42 32.598 32.598 42 21 42ZM21 40C31.4934 40 40 31.4934 40 21C40 10.5066 31.4934 2 21 2C10.5066 2 2 10.5066 2 21C2 31.4934 10.5066 40 21 40ZM6 21C6 29.2843 12.7157 36 21 36C29.2843 36 36 29.2843 36 21C36 12.7157 29.2843 6 21 6C12.7157 6 6 12.7157 6 21ZM21 34C28.1797 34 34 28.1797 34 21C34 13.8203 28.1797 8 21 8C13.8203 8 8 13.8203 8 21C8 28.1797 13.8203 34 21 34ZM24.9062 14H22V13C22 12.4477 21.5523 12 21 12C20.4477 12 20 12.4477 20 13V14H19.0279C17.371 14 16.0279 15.3431 16.0279 17V18.0015C16.0279 19.6584 17.371 21.0015 19.0279 21.0015H23C23.5523 21.0015 24 21.4492 24 22.0015V23C24 23.5523 23.5523 24 23 24H18.0245C17.9833 23.4997 17.572 23.0993 17.0583 23.0837C16.5063 23.0669 16.0451 23.5008 16.0284 24.0529L16.0005 24.9696C15.9833 25.5335 16.4358 26 17 26H20V26.9825C20 27.5348 20.4477 27.9825 21 27.9825C21.5523 27.9825 22 27.5348 22 26.9825V26H23C24.6569 26 26 24.6569 26 23V22.0015C26 20.3447 24.6569 19.0015 23 19.0015H19.0279C18.4756 19.0015 18.0279 18.5538 18.0279 18.0015V17C18.0279 16.4477 18.4756 16 19.0279 16H23.9359C24.0444 16.4349 24.4377 16.7571 24.9062 16.7571C25.4585 16.7571 25.9062 16.3094 25.9062 15.7571V15C25.9062 14.4477 25.4585 14 24.9062 14Z" fill="#183B56"/>
</svg>
