<svg width="15" height="15" viewBox="0 0 15 15" fill="none" xmlns="http://www.w3.org/2000/svg">
<path fill-rule="evenodd" clip-rule="evenodd" d="M14.3058 13.7847L13.532 14.5586C13.2777 14.8156 12.8621 14.8156 12.6051 14.5586L9.87888 11.8324C9.75584 11.7093 9.68748 11.5426 9.68748 11.3675V10.9219C8.72225 11.6765 7.50818 12.125 6.18749 12.125C3.04569 12.125 0.5 9.57929 0.5 6.43749C0.5 3.29569 3.04569 0.75 6.18749 0.75C9.32929 0.75 11.875 3.29569 11.875 6.43749C11.875 7.75818 11.4265 8.97225 10.6719 9.93748H11.1175C11.2926 9.93748 11.4593 10.0058 11.5824 10.1289L14.3086 12.8551C14.5629 13.1121 14.5629 13.5277 14.3058 13.7847ZM2.68749 6.43749C2.68749 8.37341 4.25428 9.93748 6.18749 9.93748C8.12341 9.93748 9.68748 8.37069 9.68748 6.43749C9.68748 4.50156 8.12069 2.93749 6.18749 2.93749C4.25156 2.93749 2.68749 4.50428 2.68749 6.43749Z" fill="#183B56"/>
</svg>
