<svg width="14" height="15" viewBox="0 0 14 15" fill="none" xmlns="http://www.w3.org/2000/svg">
<path fill-rule="evenodd" clip-rule="evenodd" d="M10.5 4.24999C10.5 6.1832 8.93319 7.74998 6.99999 7.74998C5.06678 7.74998 3.49999 6.1832 3.49999 4.24999C3.49999 2.31679 5.06678 0.75 6.99999 0.75C8.93319 0.75 10.5 2.31679 10.5 4.24999ZM13.125 13.4375C13.125 14.1621 12.5371 14.75 11.8125 14.75H2.1875C1.46289 14.75 0.875 14.1621 0.875 13.4375V12.3C0.875 10.2711 2.5211 8.62498 4.55 8.62498H5.00662C5.61641 8.90389 6.28905 9.06248 6.99999 9.06248C7.71092 9.06248 8.38632 8.90389 8.99335 8.62498H9.44997C11.4789 8.62498 13.125 10.2711 13.125 12.3V13.4375Z" fill="#5A7184"/>
</svg>
